<svg xmlns="http://www.w3.org/2000/svg" xmlns:xlink="http://www.w3.org/1999/xlink" width="800" zoomAndPan="magnify" viewBox="0 0 600 599.999999" height="800" preserveAspectRatio="xMidYMid meet" version="1.0"><path fill="#b28947" d="M 84.003906 4.433594 L 32.570312 4.835938 C 31.59375 4.832031 30.621094 4.875 29.648438 4.964844 C 28.675781 5.058594 27.714844 5.195312 26.753906 5.382812 C 25.796875 5.570312 24.851562 5.800781 23.917969 6.082031 C 22.980469 6.363281 22.0625 6.6875 21.160156 7.058594 C 20.257812 7.429688 19.375 7.84375 18.515625 8.304688 C 17.652344 8.761719 16.816406 9.261719 16.007812 9.804688 C 15.195312 10.34375 14.410156 10.925781 13.65625 11.542969 C 12.902344 12.164062 12.179688 12.816406 11.492188 13.507812 C 10.800781 14.199219 10.148438 14.921875 9.53125 15.675781 C 8.910156 16.433594 8.332031 17.214844 7.792969 18.027344 C 7.25 18.839844 6.753906 19.679688 6.296875 20.539062 C 5.839844 21.402344 5.425781 22.285156 5.054688 23.1875 C 4.683594 24.089844 4.359375 25.007812 4.082031 25.945312 C 3.800781 26.878906 3.570312 27.824219 3.382812 28.785156 C 3.199219 29.742188 3.0625 30.707031 2.972656 31.679688 C 2.882812 32.648438 2.839844 33.625 2.847656 34.597656 C 2.855469 35.574219 2.910156 36.546875 3.011719 37.519531 C 3.113281 38.488281 3.265625 39.449219 3.464844 40.40625 C 3.664062 41.363281 3.90625 42.304688 4.199219 43.234375 C 4.492188 44.167969 4.828125 45.082031 5.210938 45.980469 C 5.59375 46.878906 6.019531 47.753906 6.488281 48.609375 C 6.957031 49.464844 7.46875 50.296875 8.019531 51.101562 C 8.570312 51.90625 9.160156 52.679688 9.789062 53.425781 C 10.414062 54.175781 11.078125 54.886719 11.777344 55.570312 C 12.476562 56.25 13.207031 56.894531 13.972656 57.503906 C 14.734375 58.113281 15.523438 58.679688 16.34375 59.210938 C 17.164062 59.742188 18.007812 60.230469 18.875 60.675781 C 19.742188 61.125 20.628906 61.527344 21.535156 61.886719 C 22.441406 62.242188 23.367188 62.558594 24.304688 62.824219 C 25.242188 63.09375 26.191406 63.3125 27.152344 63.484375 C 28.113281 63.660156 29.078125 63.785156 30.050781 63.863281 C 31.023438 63.941406 32 63.96875 32.972656 63.949219 L 64.609375 63.71875 L 161.9375 297.285156 L 126.550781 353.859375 C 101.773438 393.429688 131.902344 447.785156 178.5625 447.785156 L 505.417969 447.785156 C 506.394531 447.796875 507.371094 447.761719 508.34375 447.679688 C 509.316406 447.597656 510.285156 447.464844 511.246094 447.289062 C 512.203125 447.109375 513.152344 446.882812 514.089844 446.609375 C 515.03125 446.335938 515.953125 446.019531 516.859375 445.65625 C 517.765625 445.289062 518.652344 444.882812 519.515625 444.429688 C 520.382812 443.976562 521.222656 443.484375 522.039062 442.949219 C 522.859375 442.414062 523.644531 441.839844 524.40625 441.226562 C 525.167969 440.609375 525.894531 439.960938 526.589844 439.273438 C 527.285156 438.589844 527.945312 437.871094 528.570312 437.121094 C 529.195312 436.367188 529.78125 435.589844 530.328125 434.777344 C 530.875 433.96875 531.378906 433.136719 531.84375 432.277344 C 532.308594 431.417969 532.726562 430.535156 533.105469 429.636719 C 533.484375 428.734375 533.8125 427.816406 534.101562 426.882812 C 534.386719 425.949219 534.625 425.003906 534.816406 424.042969 C 535.007812 423.085938 535.152344 422.121094 535.25 421.148438 C 535.347656 420.179688 535.394531 419.203125 535.394531 418.226562 C 535.394531 417.25 535.347656 416.273438 535.25 415.304688 C 535.152344 414.332031 535.007812 413.367188 534.816406 412.410156 C 534.625 411.449219 534.386719 410.503906 534.101562 409.570312 C 533.8125 408.636719 533.484375 407.71875 533.105469 406.816406 C 532.726562 405.917969 532.308594 405.035156 531.84375 404.175781 C 531.378906 403.316406 530.875 402.484375 530.328125 401.675781 C 529.78125 400.863281 529.195312 400.085938 528.570312 399.332031 C 527.945312 398.582031 527.285156 397.863281 526.589844 397.179688 C 525.894531 396.492188 525.167969 395.84375 524.40625 395.230469 C 523.644531 394.613281 522.859375 394.039062 522.039062 393.503906 C 521.222656 392.96875 520.382812 392.476562 519.515625 392.023438 C 518.652344 391.570312 517.765625 391.164062 516.859375 390.800781 C 515.953125 390.433594 515.03125 390.117188 514.089844 389.84375 C 513.152344 389.570312 512.203125 389.34375 511.246094 389.164062 C 510.285156 388.988281 509.316406 388.855469 508.34375 388.773438 C 507.371094 388.691406 506.394531 388.65625 505.417969 388.671875 L 178.5625 388.671875 C 175.273438 388.671875 174.894531 388.023438 176.660156 385.207031 C 176.679688 385.207031 176.695312 385.207031 176.714844 385.207031 L 211.46875 329.558594 L 432.160156 329.558594 C 453.621094 329.558594 473.425781 317.902344 483.828125 299.132812 L 590.277344 107.421875 C 601.242188 87.734375 586.996094 63.546875 564.472656 63.546875 L 128.570312 63.546875 L 111.542969 22.617188 C 110.980469 21.269531 110.320312 19.96875 109.566406 18.71875 C 108.808594 17.464844 107.96875 16.277344 107.035156 15.152344 C 106.105469 14.027344 105.09375 12.972656 104.007812 12 C 102.921875 11.023438 101.765625 10.132812 100.546875 9.324219 C 99.328125 8.519531 98.054688 7.808594 96.730469 7.191406 C 95.40625 6.574219 94.042969 6.058594 92.640625 5.644531 C 91.238281 5.230469 89.816406 4.921875 88.367188 4.71875 C 86.921875 4.515625 85.46875 4.421875 84.003906 4.433594 Z M 180.296875 477.339844 C 178.359375 477.339844 176.429688 477.433594 174.5 477.625 C 172.574219 477.8125 170.660156 478.097656 168.761719 478.476562 C 166.863281 478.851562 164.988281 479.324219 163.136719 479.886719 C 161.285156 480.449219 159.460938 481.097656 157.675781 481.839844 C 155.886719 482.582031 154.136719 483.40625 152.429688 484.320312 C 150.722656 485.234375 149.0625 486.226562 147.453125 487.300781 C 145.84375 488.378906 144.292969 489.53125 142.792969 490.757812 C 141.296875 491.984375 139.863281 493.285156 138.496094 494.652344 C 137.128906 496.023438 135.828125 497.457031 134.601562 498.953125 C 133.371094 500.449219 132.21875 502 131.144531 503.613281 C 130.070312 505.222656 129.074219 506.878906 128.164062 508.585938 C 127.25 510.292969 126.421875 512.042969 125.683594 513.832031 C 124.941406 515.621094 124.289062 517.441406 123.726562 519.292969 C 123.164062 521.144531 122.695312 523.023438 122.316406 524.921875 C 121.941406 526.820312 121.65625 528.730469 121.46875 530.660156 C 121.277344 532.585938 121.183594 534.515625 121.183594 536.453125 C 121.183594 538.390625 121.277344 540.320312 121.46875 542.246094 C 121.65625 544.175781 121.941406 546.085938 122.316406 547.984375 C 122.695312 549.882812 123.164062 551.761719 123.726562 553.613281 C 124.289062 555.464844 124.941406 557.285156 125.683594 559.074219 C 126.421875 560.863281 127.25 562.613281 128.164062 564.320312 C 129.074219 566.027344 130.070312 567.683594 131.144531 569.292969 C 132.21875 570.90625 133.371094 572.457031 134.601562 573.953125 C 135.828125 575.449219 137.128906 576.882812 138.496094 578.253906 C 139.863281 579.621094 141.296875 580.921875 142.792969 582.148438 C 144.292969 583.375 145.84375 584.527344 147.453125 585.605469 C 149.0625 586.679688 150.722656 587.671875 152.429688 588.585938 C 154.136719 589.5 155.886719 590.324219 157.675781 591.066406 C 159.460938 591.808594 161.28125 592.460938 163.136719 593.019531 C 164.988281 593.582031 166.863281 594.054688 168.761719 594.429688 C 170.660156 594.808594 172.574219 595.09375 174.5 595.28125 C 176.429688 595.472656 178.359375 595.566406 180.296875 595.566406 C 182.230469 595.566406 184.164062 595.472656 186.089844 595.28125 C 188.015625 595.09375 189.929688 594.808594 191.828125 594.429688 C 193.726562 594.054688 195.601562 593.582031 197.457031 593.019531 C 199.308594 592.460938 201.128906 591.808594 202.917969 591.066406 C 204.707031 590.324219 206.453125 589.5 208.160156 588.585938 C 209.867188 587.671875 211.527344 586.679688 213.136719 585.605469 C 214.746094 584.527344 216.300781 583.375 217.796875 582.148438 C 219.292969 580.921875 220.726562 579.621094 222.09375 578.253906 C 223.464844 576.882812 224.761719 575.449219 225.992188 573.953125 C 227.21875 572.457031 228.371094 570.90625 229.445312 569.292969 C 230.523438 567.683594 231.515625 566.027344 232.429688 564.320312 C 233.339844 562.613281 234.167969 560.863281 234.910156 559.074219 C 235.648438 557.285156 236.300781 555.464844 236.863281 553.613281 C 237.425781 551.761719 237.894531 549.882812 238.273438 547.984375 C 238.652344 546.085938 238.933594 544.175781 239.125 542.246094 C 239.3125 540.320312 239.410156 538.390625 239.410156 536.453125 C 239.410156 534.515625 239.3125 532.585938 239.125 530.660156 C 238.933594 528.730469 238.652344 526.820312 238.273438 524.921875 C 237.894531 523.023438 237.425781 521.144531 236.863281 519.292969 C 236.300781 517.441406 235.648438 515.621094 234.910156 513.832031 C 234.167969 512.042969 233.339844 510.292969 232.429688 508.585938 C 231.515625 506.878906 230.523438 505.222656 229.445312 503.613281 C 228.371094 502 227.21875 500.449219 225.992188 498.953125 C 224.761719 497.457031 223.464844 496.023438 222.09375 494.652344 C 220.726562 493.285156 219.292969 491.984375 217.796875 490.757812 C 216.300781 489.53125 214.746094 488.378906 213.136719 487.300781 C 211.527344 486.226562 209.867188 485.234375 208.160156 484.320312 C 206.453125 483.40625 204.707031 482.582031 202.917969 481.839844 C 201.128906 481.097656 199.308594 480.449219 197.457031 479.886719 C 195.601562 479.324219 193.726562 478.851562 191.828125 478.476562 C 189.929688 478.097656 188.015625 477.8125 186.089844 477.625 C 184.164062 477.433594 182.230469 477.339844 180.296875 477.339844 Z M 475.863281 477.339844 C 473.925781 477.339844 471.996094 477.433594 470.066406 477.625 C 468.140625 477.8125 466.230469 478.097656 464.328125 478.476562 C 462.429688 478.851562 460.554688 479.324219 458.703125 479.886719 C 456.851562 480.449219 455.027344 481.097656 453.242188 481.839844 C 451.453125 482.582031 449.703125 483.40625 447.996094 484.320312 C 446.289062 485.234375 444.628906 486.226562 443.019531 487.300781 C 441.410156 488.378906 439.859375 489.53125 438.359375 490.757812 C 436.863281 491.984375 435.429688 493.285156 434.0625 494.652344 C 432.695312 496.023438 431.394531 497.457031 430.167969 498.953125 C 428.9375 500.449219 427.785156 502 426.710938 503.613281 C 425.636719 505.222656 424.640625 506.878906 423.730469 508.585938 C 422.816406 510.292969 421.988281 512.042969 421.25 513.832031 C 420.507812 515.621094 419.855469 517.441406 419.292969 519.292969 C 418.730469 521.144531 418.261719 523.023438 417.882812 524.921875 C 417.507812 526.820312 417.222656 528.730469 417.035156 530.660156 C 416.84375 532.585938 416.75 534.515625 416.75 536.453125 C 416.75 538.390625 416.84375 540.320312 417.035156 542.246094 C 417.222656 544.175781 417.507812 546.085938 417.882812 547.984375 C 418.261719 549.882812 418.730469 551.761719 419.292969 553.613281 C 419.855469 555.464844 420.507812 557.285156 421.25 559.074219 C 421.988281 560.863281 422.816406 562.613281 423.730469 564.320312 C 424.640625 566.027344 425.636719 567.683594 426.710938 569.292969 C 427.785156 570.90625 428.9375 572.457031 430.167969 573.953125 C 431.394531 575.449219 432.695312 576.882812 434.0625 578.253906 C 435.429688 579.621094 436.863281 580.921875 438.359375 582.148438 C 439.859375 583.375 441.410156 584.527344 443.019531 585.605469 C 444.628906 586.679688 446.289062 587.671875 447.996094 588.585938 C 449.703125 589.5 451.453125 590.324219 453.242188 591.066406 C 455.027344 591.808594 456.851562 592.460938 458.703125 593.019531 C 460.554688 593.582031 462.429688 594.054688 464.328125 594.429688 C 466.226562 594.808594 468.140625 595.09375 470.066406 595.28125 C 471.996094 595.472656 473.925781 595.566406 475.863281 595.566406 C 477.796875 595.566406 479.730469 595.472656 481.65625 595.28125 C 483.582031 595.09375 485.496094 594.808594 487.394531 594.429688 C 489.292969 594.054688 491.167969 593.582031 493.023438 593.019531 C 494.875 592.460938 496.695312 591.808594 498.484375 591.066406 C 500.273438 590.324219 502.019531 589.5 503.726562 588.585938 C 505.433594 587.671875 507.09375 586.679688 508.703125 585.605469 C 510.3125 584.527344 511.867188 583.375 513.363281 582.148438 C 514.859375 580.921875 516.292969 579.621094 517.660156 578.253906 C 519.03125 576.882812 520.328125 575.449219 521.558594 573.953125 C 522.785156 572.457031 523.9375 570.90625 525.011719 569.292969 C 526.089844 567.683594 527.082031 566.027344 527.996094 564.320312 C 528.90625 562.613281 529.734375 560.863281 530.476562 559.074219 C 531.214844 557.285156 531.867188 555.464844 532.429688 553.613281 C 532.992188 551.761719 533.460938 549.882812 533.839844 547.984375 C 534.21875 546.085938 534.5 544.175781 534.691406 542.246094 C 534.878906 540.320312 534.976562 538.390625 534.976562 536.453125 C 534.976562 534.515625 534.878906 532.585938 534.691406 530.660156 C 534.5 528.730469 534.21875 526.820312 533.839844 524.921875 C 533.460938 523.023438 532.992188 521.144531 532.429688 519.292969 C 531.867188 517.441406 531.214844 515.621094 530.476562 513.832031 C 529.734375 512.042969 528.90625 510.292969 527.996094 508.585938 C 527.082031 506.878906 526.089844 505.222656 525.011719 503.613281 C 523.9375 502 522.785156 500.449219 521.558594 498.953125 C 520.328125 497.457031 519.03125 496.023438 517.660156 494.652344 C 516.292969 493.285156 514.859375 491.984375 513.363281 490.757812 C 511.867188 489.53125 510.3125 488.378906 508.703125 487.300781 C 507.09375 486.226562 505.433594 485.234375 503.726562 484.320312 C 502.019531 483.40625 500.273438 482.582031 498.484375 481.839844 C 496.695312 481.097656 494.875 480.449219 493.023438 479.886719 C 491.167969 479.324219 489.292969 478.851562 487.394531 478.476562 C 485.496094 478.097656 483.582031 477.8125 481.65625 477.625 C 479.730469 477.433594 477.796875 477.339844 475.863281 477.339844 Z M 475.863281 477.339844 " fill-opacity="1" fill-rule="nonzero"/></svg>