<svg xmlns="http://www.w3.org/2000/svg" xmlns:xlink="http://www.w3.org/1999/xlink" width="800" zoomAndPan="magnify" viewBox="0 0 600 599.999999" height="800" preserveAspectRatio="xMidYMid meet" version="1.0"><path fill="#b28947" d="M 407.15625 237.617188 C 405.066406 279.109375 387.257812 319.535156 353.933594 349.605469 C 320.707031 379.675781 278.710938 393.308594 237.191406 391.234375 C 195.675781 389.101562 155.253906 371.320312 125.148438 338.078125 C 95.121094 304.785156 81.546875 262.800781 83.578125 221.230469 C 85.695312 179.765625 103.492188 139.34375 136.746094 109.296875 C 170.015625 79.253906 212.023438 65.59375 253.527344 67.695312 C 295.070312 69.773438 335.453125 87.554688 365.527344 120.824219 C 395.601562 154.066406 409.179688 196.101562 407.15625 237.617188 Z M 570.277344 532.613281 L 423.164062 369.820312 C 453.03125 332.074219 469.5 286.808594 471.839844 240.925781 C 474.839844 183.046875 455.515625 123.746094 413.628906 77.367188 C 371.699219 30.988281 314.613281 5.859375 256.789062 2.960938 C 198.921875 -0.015625 139.613281 19.269531 93.332031 61.195312 C 46.882812 103.152344 21.792969 160.15625 18.898438 217.980469 C 15.867188 275.832031 35.179688 335.132812 77.082031 381.511719 C 119.019531 427.886719 176.09375 453.042969 233.945312 455.941406 C 279.816406 458.289062 326.566406 446.40625 367.125 420.488281 L 514.183594 583.253906 C 528.203125 598.769531 552.101562 599.941406 567.570312 585.953125 C 583.074219 571.96875 584.261719 548.070312 570.277344 532.613281 " fill-opacity="1" fill-rule="nonzero"/></svg>