<svg xmlns="http://www.w3.org/2000/svg" xmlns:xlink="http://www.w3.org/1999/xlink" width="800" zoomAndPan="magnify" viewBox="0 0 600 599.999999" height="800" preserveAspectRatio="xMidYMid meet" version="1.0"><defs><clipPath id="8ce08bc143"><path d="M 77.453125 318 L 522.203125 318 L 522.203125 600 L 77.453125 600 Z M 77.453125 318 " clip-rule="nonzero"/></clipPath></defs><path fill="#b28947" d="M 410.785156 111.246094 C 411.539062 113.058594 412.25 114.886719 412.914062 116.734375 C 413.582031 118.582031 414.199219 120.445312 414.773438 122.324219 C 415.347656 124.199219 415.875 126.089844 416.355469 127.996094 C 416.835938 129.898438 417.273438 131.8125 417.660156 133.738281 C 418.046875 135.664062 418.386719 137.597656 418.675781 139.539062 C 418.96875 141.480469 419.214844 143.429688 419.410156 145.382812 C 419.605469 147.335938 419.753906 149.292969 419.855469 151.253906 C 419.957031 153.214844 420.007812 155.179688 420.011719 157.140625 C 420.015625 159.105469 419.972656 161.066406 419.878906 163.027344 C 419.785156 164.992188 419.644531 166.949219 419.457031 168.902344 C 419.269531 170.859375 419.03125 172.804688 418.75 174.75 C 418.464844 176.691406 418.132812 178.628906 417.753906 180.554688 C 417.375 182.480469 416.949219 184.398438 416.472656 186.300781 C 416 188.207031 415.480469 190.101562 414.914062 191.980469 C 414.347656 193.863281 413.738281 195.726562 413.078125 197.578125 C 412.421875 199.425781 411.71875 201.261719 410.972656 203.074219 C 410.222656 204.890625 409.429688 206.6875 408.59375 208.464844 C 407.757812 210.242188 406.878906 211.996094 405.957031 213.730469 C 405.035156 215.464844 404.070312 217.171875 403.066406 218.859375 C 402.058594 220.546875 401.011719 222.207031 399.925781 223.839844 C 398.835938 225.476562 397.710938 227.082031 396.542969 228.664062 C 395.378906 230.242188 394.171875 231.792969 392.929688 233.3125 C 391.6875 234.832031 390.410156 236.324219 389.09375 237.78125 C 387.777344 239.238281 386.425781 240.664062 385.039062 242.054688 C 383.65625 243.445312 382.234375 244.800781 380.785156 246.121094 C 379.332031 247.445312 377.847656 248.730469 376.332031 249.976562 C 374.816406 251.226562 373.273438 252.4375 371.695312 253.609375 C 370.121094 254.785156 368.519531 255.917969 366.890625 257.011719 C 365.257812 258.105469 363.601562 259.160156 361.921875 260.171875 C 360.238281 261.183594 358.53125 262.15625 356.800781 263.085938 C 355.074219 264.015625 353.320312 264.902344 351.546875 265.742188 C 349.773438 266.585938 347.980469 267.386719 346.167969 268.140625 C 344.355469 268.894531 342.527344 269.605469 340.679688 270.273438 C 338.832031 270.9375 336.96875 271.558594 335.089844 272.128906 C 333.210938 272.703125 331.320312 273.230469 329.417969 273.710938 C 327.515625 274.195312 325.597656 274.628906 323.675781 275.015625 C 321.75 275.402344 319.816406 275.742188 317.875 276.03125 C 315.933594 276.324219 313.984375 276.570312 312.03125 276.765625 C 310.078125 276.960938 308.121094 277.109375 306.160156 277.210938 C 304.195312 277.3125 302.234375 277.363281 300.269531 277.367188 C 298.308594 277.371094 296.34375 277.328125 294.382812 277.234375 C 292.421875 277.140625 290.464844 277.003906 288.511719 276.8125 C 286.554688 276.625 284.605469 276.386719 282.664062 276.105469 C 280.71875 275.820312 278.785156 275.488281 276.859375 275.109375 C 274.933594 274.730469 273.015625 274.304688 271.109375 273.832031 C 269.203125 273.359375 267.3125 272.835938 265.433594 272.273438 C 263.550781 271.707031 261.6875 271.09375 259.835938 270.4375 C 257.984375 269.777344 256.152344 269.074219 254.335938 268.328125 C 252.523438 267.578125 250.726562 266.789062 248.949219 265.953125 C 247.171875 265.117188 245.417969 264.238281 243.683594 263.316406 C 241.949219 262.390625 240.238281 261.429688 238.554688 260.421875 C 236.867188 259.417969 235.207031 258.371094 233.570312 257.28125 C 231.9375 256.195312 230.328125 255.066406 228.75 253.898438 C 227.171875 252.734375 225.621094 251.527344 224.101562 250.285156 C 222.578125 249.042969 221.089844 247.765625 219.632812 246.449219 C 218.175781 245.132812 216.75 243.78125 215.359375 242.398438 C 213.96875 241.011719 212.613281 239.59375 211.289062 238.140625 C 209.96875 236.6875 208.683594 235.203125 207.433594 233.6875 C 206.1875 232.171875 204.976562 230.628906 203.800781 229.054688 C 202.628906 227.480469 201.496094 225.875 200.402344 224.246094 C 199.308594 222.613281 198.253906 220.957031 197.242188 219.277344 C 196.226562 217.59375 195.257812 215.886719 194.328125 214.160156 C 193.398438 212.429688 192.511719 210.675781 191.667969 208.902344 C 190.824219 207.128906 190.027344 205.335938 189.273438 203.523438 C 188.515625 201.710938 187.804688 199.882812 187.140625 198.035156 C 186.476562 196.1875 185.855469 194.324219 185.28125 192.445312 C 184.707031 190.566406 184.179688 188.675781 183.699219 186.773438 C 183.21875 184.871094 182.785156 182.957031 182.398438 181.03125 C 182.011719 179.105469 181.671875 177.171875 181.378906 175.230469 C 181.085938 173.289062 180.84375 171.339844 180.648438 169.386719 C 180.449219 167.433594 180.300781 165.476562 180.203125 163.515625 C 180.101562 161.554688 180.050781 159.589844 180.046875 157.628906 C 180.042969 155.664062 180.085938 153.703125 180.179688 151.738281 C 180.269531 149.777344 180.410156 147.820312 180.597656 145.867188 C 180.789062 143.910156 181.023438 141.960938 181.308594 140.019531 C 181.59375 138.078125 181.925781 136.140625 182.304688 134.214844 C 182.683594 132.289062 183.109375 130.371094 183.582031 128.464844 C 184.054688 126.5625 184.574219 124.667969 185.140625 122.789062 C 185.707031 120.90625 186.320312 119.042969 186.976562 117.191406 C 187.636719 115.34375 188.339844 113.507812 189.085938 111.695312 C 189.832031 109.878906 190.625 108.082031 191.460938 106.304688 C 192.296875 104.527344 193.175781 102.773438 194.097656 101.039062 C 195.019531 99.304688 195.984375 97.59375 196.992188 95.910156 C 197.996094 94.222656 199.042969 92.5625 200.132812 90.925781 C 201.21875 89.292969 202.347656 87.683594 203.511719 86.105469 C 204.679688 84.527344 205.882812 82.976562 207.125 81.457031 C 208.367188 79.933594 209.648438 78.445312 210.964844 76.988281 C 212.28125 75.53125 213.628906 74.105469 215.015625 72.714844 C 216.402344 71.324219 217.820312 69.96875 219.273438 68.644531 C 220.726562 67.324219 222.207031 66.039062 223.722656 64.789062 C 225.238281 63.542969 226.785156 62.332031 228.359375 61.15625 C 229.933594 59.984375 231.535156 58.851562 233.167969 57.757812 C 234.796875 56.664062 236.453125 55.609375 238.136719 54.597656 C 239.820312 53.582031 241.523438 52.613281 243.253906 51.683594 C 244.984375 50.753906 246.734375 49.867188 248.507812 49.023438 C 250.28125 48.183594 252.074219 47.382812 253.886719 46.628906 C 255.699219 45.871094 257.53125 45.164062 259.378906 44.496094 C 261.226562 43.832031 263.089844 43.210938 264.964844 42.636719 C 266.84375 42.066406 268.734375 41.539062 270.640625 41.054688 C 272.542969 40.574219 274.457031 40.140625 276.382812 39.753906 C 278.308594 39.367188 280.242188 39.027344 282.183594 38.734375 C 284.125 38.445312 286.074219 38.199219 288.027344 38.003906 C 289.980469 37.808594 291.9375 37.660156 293.898438 37.558594 C 295.859375 37.457031 297.820312 37.40625 299.785156 37.402344 C 301.75 37.398438 303.710938 37.441406 305.671875 37.535156 C 307.632812 37.625 309.59375 37.765625 311.546875 37.957031 C 313.5 38.144531 315.449219 38.378906 317.394531 38.664062 C 319.335938 38.949219 321.269531 39.28125 323.199219 39.660156 C 325.125 40.039062 327.039062 40.464844 328.945312 40.9375 C 330.851562 41.410156 332.746094 41.929688 334.625 42.496094 C 336.503906 43.0625 338.371094 43.675781 340.222656 44.332031 C 342.070312 44.992188 343.902344 45.695312 345.71875 46.441406 C 347.535156 47.191406 349.332031 47.980469 351.109375 48.816406 C 352.886719 49.652344 354.640625 50.53125 356.375 51.453125 C 358.105469 52.375 359.816406 53.339844 361.503906 54.347656 C 363.191406 55.351562 364.851562 56.398438 366.484375 57.488281 C 368.121094 58.574219 369.726562 59.703125 371.308594 60.867188 C 372.886719 62.035156 374.4375 63.238281 375.957031 64.480469 C 377.476562 65.726562 378.964844 67.003906 380.425781 68.320312 C 381.882812 69.636719 383.304688 70.984375 384.699219 72.371094 C 386.089844 73.757812 387.445312 75.175781 388.765625 76.628906 C 390.089844 78.082031 391.375 79.566406 392.621094 81.082031 C 393.871094 82.597656 395.082031 84.140625 396.253906 85.714844 C 397.429688 87.289062 398.5625 88.894531 399.65625 90.523438 C 400.75 92.152344 401.804688 93.808594 402.816406 95.492188 C 403.828125 97.175781 404.800781 98.878906 405.730469 100.609375 C 406.660156 102.339844 407.542969 104.09375 408.386719 105.867188 C 409.230469 107.640625 410.03125 109.433594 410.785156 111.246094 Z M 410.785156 111.246094 " fill-opacity="1" fill-rule="nonzero"/><g clip-path="url(#8ce08bc143)"><path fill="#b28947" d="M 300.027344 318.40625 C 177.09375 318.40625 77.453125 418.074219 77.453125 540.976562 C 77.453125 573.234375 103.613281 599.394531 135.871094 599.394531 L 464.210938 599.394531 C 496.46875 599.394531 522.628906 573.234375 522.628906 540.976562 C 522.628906 418.074219 422.960938 318.40625 300.027344 318.40625 Z M 300.027344 318.40625 " fill-opacity="1" fill-rule="nonzero"/></g></svg>