<svg xmlns="http://www.w3.org/2000/svg" xmlns:xlink="http://www.w3.org/1999/xlink" width="800" zoomAndPan="magnify" viewBox="0 0 600 599.999999" height="800" preserveAspectRatio="xMidYMid meet" version="1.0"><defs><clipPath id="a3c9b95726"><path d="M 8.242188 34.863281 L 591.742188 34.863281 L 591.742188 141 L 8.242188 141 Z M 8.242188 34.863281 " clip-rule="nonzero"/></clipPath><clipPath id="6974c38865"><path d="M 8.242188 246 L 591.742188 246 L 591.742188 354 L 8.242188 354 Z M 8.242188 246 " clip-rule="nonzero"/></clipPath><clipPath id="e1a85b6dfb"><path d="M 8.242188 459 L 591.742188 459 L 591.742188 565.113281 L 8.242188 565.113281 Z M 8.242188 459 " clip-rule="nonzero"/></clipPath></defs><g clip-path="url(#a3c9b95726)"><path fill="#b28947" d="M 61.378906 140.917969 L 538.613281 140.917969 C 540.351562 140.917969 542.082031 140.832031 543.8125 140.660156 C 545.539062 140.492188 547.257812 140.234375 548.960938 139.898438 C 550.664062 139.558594 552.34375 139.136719 554.007812 138.632812 C 555.667969 138.128906 557.300781 137.542969 558.90625 136.878906 C 560.511719 136.214844 562.078125 135.472656 563.609375 134.65625 C 565.140625 133.835938 566.628906 132.945312 568.074219 131.980469 C 569.519531 131.015625 570.910156 129.980469 572.253906 128.878906 C 573.597656 127.777344 574.882812 126.613281 576.109375 125.386719 C 577.335938 124.15625 578.503906 122.871094 579.605469 121.53125 C 580.707031 120.1875 581.738281 118.792969 582.703125 117.351562 C 583.667969 115.90625 584.558594 114.417969 585.378906 112.886719 C 586.199219 111.355469 586.9375 109.785156 587.605469 108.183594 C 588.269531 106.578125 588.851562 104.945312 589.355469 103.28125 C 589.859375 101.621094 590.28125 99.9375 590.621094 98.234375 C 590.960938 96.53125 591.214844 94.816406 591.386719 93.085938 C 591.554688 91.359375 591.640625 89.625 591.640625 87.890625 C 591.640625 86.152344 591.554688 84.421875 591.386719 82.691406 C 591.214844 80.964844 590.960938 79.25 590.621094 77.546875 C 590.28125 75.839844 589.859375 74.160156 589.355469 72.496094 C 588.851562 70.835938 588.269531 69.203125 587.605469 67.597656 C 586.9375 65.992188 586.199219 64.425781 585.378906 62.894531 C 584.558594 61.363281 583.667969 59.875 582.703125 58.429688 C 581.738281 56.984375 580.707031 55.59375 579.605469 54.25 C 578.503906 52.90625 577.335938 51.621094 576.109375 50.394531 C 574.882812 49.167969 573.597656 48 572.253906 46.898438 C 570.910156 45.796875 569.519531 44.765625 568.074219 43.800781 C 566.628906 42.835938 565.140625 41.945312 563.609375 41.125 C 562.078125 40.304688 560.511719 39.566406 558.90625 38.898438 C 557.300781 38.234375 555.667969 37.652344 554.007812 37.148438 C 552.34375 36.644531 550.664062 36.222656 548.960938 35.882812 C 547.253906 35.542969 545.539062 35.289062 543.8125 35.117188 C 542.082031 34.949219 540.351562 34.863281 538.613281 34.863281 L 61.378906 34.863281 C 59.640625 34.863281 57.910156 34.949219 56.179688 35.117188 C 54.453125 35.289062 52.738281 35.542969 51.035156 35.882812 C 49.332031 36.222656 47.648438 36.644531 45.984375 37.148438 C 44.324219 37.652344 42.691406 38.234375 41.085938 38.898438 C 39.480469 39.566406 37.914062 40.304688 36.382812 41.125 C 34.851562 41.945312 33.363281 42.835938 31.917969 43.800781 C 30.476562 44.765625 29.082031 45.796875 27.738281 46.898438 C 26.398438 48 25.113281 49.167969 23.882812 50.394531 C 22.65625 51.621094 21.492188 52.90625 20.390625 54.25 C 19.289062 55.59375 18.253906 56.984375 17.289062 58.429688 C 16.324219 59.875 15.433594 61.363281 14.613281 62.894531 C 13.796875 64.425781 13.054688 65.992188 12.390625 67.597656 C 11.722656 69.203125 11.140625 70.835938 10.636719 72.496094 C 10.132812 74.160156 9.710938 75.839844 9.371094 77.546875 C 9.03125 79.25 8.777344 80.964844 8.609375 82.691406 C 8.4375 84.421875 8.351562 86.152344 8.351562 87.890625 C 8.351562 89.625 8.4375 91.359375 8.609375 93.085938 C 8.777344 94.816406 9.03125 96.53125 9.371094 98.234375 C 9.710938 99.9375 10.132812 101.621094 10.636719 103.28125 C 11.140625 104.945312 11.722656 106.578125 12.390625 108.183594 C 13.054688 109.785156 13.796875 111.355469 14.613281 112.886719 C 15.433594 114.417969 16.324219 115.90625 17.289062 117.347656 C 18.253906 118.792969 19.289062 120.1875 20.390625 121.53125 C 21.492188 122.871094 22.65625 124.15625 23.882812 125.386719 C 25.113281 126.613281 26.398438 127.777344 27.738281 128.878906 C 29.082031 129.980469 30.476562 131.015625 31.917969 131.980469 C 33.363281 132.945312 34.851562 133.835938 36.382812 134.65625 C 37.914062 135.472656 39.480469 136.214844 41.085938 136.878906 C 42.691406 137.542969 44.324219 138.128906 45.984375 138.632812 C 47.648438 139.136719 49.332031 139.558594 51.035156 139.898438 C 52.738281 140.234375 54.453125 140.492188 56.179688 140.660156 C 57.910156 140.832031 59.640625 140.917969 61.378906 140.917969 Z M 61.378906 140.917969 " fill-opacity="1" fill-rule="nonzero"/></g><g clip-path="url(#6974c38865)"><path fill="#b28947" d="M 538.613281 246.96875 L 61.378906 246.96875 C 59.640625 246.96875 57.910156 247.054688 56.179688 247.222656 C 54.453125 247.394531 52.738281 247.648438 51.035156 247.988281 C 49.332031 248.324219 47.648438 248.746094 45.984375 249.25 C 44.324219 249.753906 42.691406 250.339844 41.085938 251.003906 C 39.480469 251.667969 37.914062 252.410156 36.382812 253.230469 C 34.851562 254.046875 33.363281 254.941406 31.917969 255.90625 C 30.476562 256.871094 29.082031 257.902344 27.738281 259.003906 C 26.398438 260.105469 25.113281 261.269531 23.882812 262.5 C 22.65625 263.726562 21.492188 265.011719 20.390625 266.355469 C 19.289062 267.699219 18.253906 269.089844 17.289062 270.535156 C 16.324219 271.980469 15.433594 273.464844 14.613281 275 C 13.796875 276.53125 13.054688 278.097656 12.390625 279.703125 C 11.722656 281.308594 11.140625 282.941406 10.636719 284.601562 C 10.132812 286.265625 9.710938 287.945312 9.371094 289.648438 C 9.03125 291.351562 8.777344 293.070312 8.609375 294.796875 C 8.4375 296.527344 8.351562 298.257812 8.351562 299.996094 C 8.351562 301.730469 8.4375 303.464844 8.609375 305.191406 C 8.777344 306.921875 9.03125 308.636719 9.371094 310.339844 C 9.710938 312.042969 10.132812 313.726562 10.636719 315.386719 C 11.140625 317.050781 11.722656 318.683594 12.390625 320.285156 C 13.054688 321.890625 13.796875 323.460938 14.613281 324.992188 C 15.433594 326.523438 16.324219 328.011719 17.289062 329.453125 C 18.253906 330.898438 19.289062 332.292969 20.390625 333.632812 C 21.492188 334.976562 22.65625 336.261719 23.882812 337.488281 C 25.113281 338.71875 26.398438 339.882812 27.738281 340.984375 C 29.082031 342.085938 30.476562 343.121094 31.917969 344.085938 C 33.363281 345.050781 34.851562 345.941406 36.382812 346.757812 C 37.914062 347.578125 39.480469 348.320312 41.085938 348.984375 C 42.691406 349.648438 44.324219 350.234375 45.984375 350.738281 C 47.648438 351.242188 49.332031 351.664062 51.035156 352 C 52.738281 352.339844 54.453125 352.59375 56.179688 352.765625 C 57.910156 352.9375 59.640625 353.019531 61.378906 353.019531 L 538.613281 353.019531 C 540.351562 353.019531 542.082031 352.9375 543.8125 352.765625 C 545.539062 352.59375 547.257812 352.339844 548.960938 352 C 550.664062 351.664062 552.34375 351.242188 554.007812 350.738281 C 555.667969 350.234375 557.300781 349.648438 558.90625 348.984375 C 560.511719 348.320312 562.078125 347.578125 563.609375 346.757812 C 565.140625 345.941406 566.628906 345.050781 568.074219 344.085938 C 569.519531 343.121094 570.910156 342.085938 572.253906 340.984375 C 573.597656 339.882812 574.882812 338.71875 576.109375 337.488281 C 577.335938 336.261719 578.503906 334.976562 579.605469 333.632812 C 580.707031 332.292969 581.738281 330.898438 582.703125 329.453125 C 583.667969 328.011719 584.558594 326.523438 585.378906 324.992188 C 586.199219 323.460938 586.9375 321.890625 587.605469 320.285156 C 588.269531 318.683594 588.851562 317.050781 589.355469 315.386719 C 589.859375 313.726562 590.28125 312.042969 590.621094 310.339844 C 590.960938 308.636719 591.214844 306.921875 591.386719 305.191406 C 591.554688 303.464844 591.640625 301.730469 591.640625 299.996094 C 591.640625 298.257812 591.554688 296.527344 591.386719 294.796875 C 591.214844 293.070312 590.960938 291.351562 590.621094 289.648438 C 590.28125 287.945312 589.859375 286.265625 589.355469 284.601562 C 588.851562 282.941406 588.269531 281.308594 587.605469 279.703125 C 586.9375 278.097656 586.199219 276.53125 585.378906 275 C 584.558594 273.464844 583.667969 271.980469 582.703125 270.535156 C 581.738281 269.089844 580.707031 267.699219 579.605469 266.355469 C 578.503906 265.011719 577.335938 263.726562 576.109375 262.5 C 574.882812 261.269531 573.597656 260.105469 572.253906 259.003906 C 570.910156 257.902344 569.519531 256.871094 568.074219 255.90625 C 566.628906 254.941406 565.140625 254.046875 563.609375 253.230469 C 562.078125 252.410156 560.511719 251.667969 558.90625 251.003906 C 557.300781 250.339844 555.667969 249.753906 554.007812 249.25 C 552.34375 248.746094 550.664062 248.324219 548.960938 247.988281 C 547.253906 247.648438 545.539062 247.394531 543.8125 247.222656 C 542.082031 247.054688 540.351562 246.96875 538.613281 246.96875 Z M 538.613281 246.96875 " fill-opacity="1" fill-rule="nonzero"/></g><g clip-path="url(#e1a85b6dfb)"><path fill="#b28947" d="M 538.613281 459.074219 L 61.378906 459.074219 C 59.640625 459.074219 57.910156 459.160156 56.179688 459.328125 C 54.453125 459.5 52.738281 459.753906 51.035156 460.09375 C 49.332031 460.429688 47.648438 460.851562 45.984375 461.355469 C 44.324219 461.859375 42.691406 462.445312 41.085938 463.109375 C 39.480469 463.773438 37.914062 464.515625 36.382812 465.335938 C 34.851562 466.152344 33.363281 467.042969 31.917969 468.007812 C 30.476562 468.972656 29.082031 470.007812 27.738281 471.109375 C 26.398438 472.210938 25.113281 473.375 23.882812 474.605469 C 22.65625 475.832031 21.492188 477.117188 20.390625 478.460938 C 19.289062 479.800781 18.253906 481.195312 17.289062 482.640625 C 16.324219 484.082031 15.433594 485.570312 14.613281 487.101562 C 13.796875 488.632812 13.054688 490.203125 12.390625 491.808594 C 11.722656 493.410156 11.140625 495.042969 10.636719 496.707031 C 10.132812 498.367188 9.710938 500.050781 9.371094 501.753906 C 9.03125 503.457031 8.777344 505.171875 8.609375 506.902344 C 8.4375 508.628906 8.351562 510.363281 8.351562 512.097656 C 8.351562 513.835938 8.4375 515.570312 8.609375 517.296875 C 8.777344 519.023438 9.03125 520.742188 9.371094 522.445312 C 9.710938 524.148438 10.132812 525.828125 10.636719 527.492188 C 11.140625 529.152344 11.722656 530.785156 12.390625 532.390625 C 13.054688 533.996094 13.796875 535.5625 14.613281 537.09375 C 15.433594 538.628906 16.324219 540.113281 17.289062 541.558594 C 18.253906 543.003906 19.289062 544.394531 20.390625 545.738281 C 21.492188 547.082031 22.65625 548.367188 23.882812 549.59375 C 25.113281 550.824219 26.398438 551.988281 27.738281 553.089844 C 29.082031 554.191406 30.476562 555.222656 31.917969 556.1875 C 33.363281 557.152344 34.851562 558.046875 36.382812 558.863281 C 37.914062 559.683594 39.480469 560.425781 41.085938 561.089844 C 42.691406 561.753906 44.324219 562.339844 45.984375 562.84375 C 47.648438 563.347656 49.332031 563.769531 51.035156 564.105469 C 52.738281 564.445312 54.453125 564.699219 56.179688 564.871094 C 57.910156 565.039062 59.640625 565.125 61.378906 565.125 L 538.613281 565.125 C 540.351562 565.125 542.082031 565.039062 543.8125 564.871094 C 545.539062 564.699219 547.257812 564.445312 548.960938 564.105469 C 550.664062 563.769531 552.34375 563.347656 554.007812 562.84375 C 555.667969 562.339844 557.300781 561.753906 558.90625 561.089844 C 560.511719 560.425781 562.078125 559.683594 563.609375 558.863281 C 565.140625 558.046875 566.628906 557.152344 568.074219 556.1875 C 569.519531 555.222656 570.910156 554.191406 572.253906 553.089844 C 573.597656 551.988281 574.882812 550.824219 576.109375 549.59375 C 577.335938 548.367188 578.503906 547.082031 579.605469 545.738281 C 580.707031 544.394531 581.738281 543.003906 582.703125 541.558594 C 583.667969 540.113281 584.558594 538.628906 585.378906 537.09375 C 586.199219 535.5625 586.9375 533.996094 587.605469 532.390625 C 588.269531 530.785156 588.851562 529.152344 589.355469 527.492188 C 589.859375 525.828125 590.28125 524.148438 590.621094 522.445312 C 590.960938 520.742188 591.214844 519.023438 591.386719 517.296875 C 591.554688 515.570312 591.640625 513.835938 591.640625 512.097656 C 591.640625 510.363281 591.554688 508.628906 591.386719 506.902344 C 591.214844 505.171875 590.960938 503.457031 590.621094 501.753906 C 590.28125 500.050781 589.859375 498.367188 589.355469 496.707031 C 588.851562 495.042969 588.269531 493.410156 587.605469 491.808594 C 586.9375 490.203125 586.199219 488.632812 585.378906 487.101562 C 584.558594 485.570312 583.667969 484.082031 582.703125 482.640625 C 581.738281 481.195312 580.707031 479.800781 579.605469 478.460938 C 578.503906 477.117188 577.335938 475.832031 576.109375 474.605469 C 574.882812 473.375 573.597656 472.210938 572.253906 471.109375 C 570.910156 470.007812 569.519531 468.972656 568.074219 468.007812 C 566.628906 467.042969 565.140625 466.152344 563.609375 465.335938 C 562.078125 464.515625 560.511719 463.773438 558.90625 463.109375 C 557.300781 462.445312 555.667969 461.859375 554.007812 461.355469 C 552.34375 460.851562 550.664062 460.429688 548.960938 460.09375 C 547.253906 459.753906 545.539062 459.5 543.8125 459.328125 C 542.082031 459.160156 540.351562 459.074219 538.613281 459.074219 Z M 538.613281 459.074219 " fill-opacity="1" fill-rule="nonzero"/></g></svg>