<svg xmlns="http://www.w3.org/2000/svg" xmlns:xlink="http://www.w3.org/1999/xlink" width="800" zoomAndPan="magnify" viewBox="0 0 600 599.999999" height="800" preserveAspectRatio="xMidYMid meet" version="1.0"><defs><clipPath id="032a2cca54"><path d="M 0 91 L 593 91 L 593 508.75 L 0 508.75 Z M 0 91 " clip-rule="nonzero"/></clipPath></defs><g clip-path="url(#032a2cca54)"><path fill="#b28947" d="M 341.042969 403.503906 C 367.507812 377.996094 368 347.566406 368 347.566406 L 214.492188 347.566406 C 212.574219 347.441406 210.601562 347.367188 208.632812 347.367188 C 206.664062 347.367188 204.695312 347.441406 202.726562 347.566406 L 202.601562 347.589844 C 154.148438 350.667969 109.265625 390.503906 100.722656 439.203125 L 122.90625 439.203125 C 116.183594 477.683594 141.914062 508.878906 180.371094 508.878906 C 218.851562 508.878906 255.484375 477.683594 262.230469 439.203125 L 355.074219 439.203125 C 374.945312 439.203125 394.542969 433.21875 411.800781 422.976562 C 409.953125 428.246094 408.503906 433.664062 407.542969 439.203125 L 429.699219 439.203125 C 422.980469 477.683594 448.707031 508.878906 487.1875 508.878906 C 525.644531 508.878906 562.304688 477.683594 569.027344 439.203125 L 591.210938 439.203125 C 600.074219 388.484375 566.171875 347.367188 515.429688 347.367188 C 514.296875 347.367188 513.164062 347.390625 512.007812 347.441406 C 518.53125 307.457031 507.574219 272.523438 485.589844 253.121094 L 484.972656 252.578125 L 499.425781 255.335938 C 514.984375 258.316406 524.710938 264.617188 532.785156 249.007812 C 539.976562 235.074219 542.535156 221.285156 539.582031 207.449219 C 537.09375 195.78125 530.59375 198.144531 518.703125 198.144531 L 467.664062 198.144531 C 454.074219 198.144531 440.976562 209.273438 438.589844 222.886719 C 437.898438 226.949219 438.269531 230.570312 439.476562 233.695312 C 430.929688 236.058594 421.847656 235.835938 414.730469 228.96875 C 403.355469 217.988281 400.5 199.421875 400.945312 184.554688 C 422.414062 181.328125 441.542969 163.257812 445.359375 141.46875 C 445.703125 139.496094 445.902344 137.550781 446 135.65625 L 460.5 135.65625 C 464.515625 135.65625 468.355469 132.382812 469.070312 128.367188 C 469.757812 124.355469 467.074219 121.058594 463.035156 121.058594 L 448.90625 121.058594 C 451.242188 104.5625 439.894531 91.214844 423.25 91.214844 L 398.40625 91.214844 C 381.417969 91.214844 365.097656 105.101562 362.117188 122.089844 L 360 134.128906 C 359.1875 136.519531 358.546875 138.957031 358.105469 141.46875 C 356.308594 151.832031 358.25 161.359375 362.980469 168.84375 C 358.941406 173.917969 354.582031 178.988281 350.742188 182.535156 C 339.761719 192.75 285.078125 246.792969 281.3125 291.699219 C 281.3125 291.699219 280.671875 296.230469 280.796875 301.917969 L 189.207031 301.917969 C 170.128906 301.917969 151.785156 317.527344 148.4375 336.609375 L 368.371094 336.609375 C 368.617188 335.15625 368.765625 333.726562 368.839844 332.347656 C 374.96875 335.992188 378.515625 340.941406 377.628906 347.835938 C 374.894531 369.15625 362.09375 392.742188 353.523438 406.554688 L 337.59375 406.554688 C 339.539062 404.636719 341.042969 403.503906 341.042969 403.503906 Z M 130.4375 198.957031 L 133.320312 182.484375 L 10.539062 182.484375 C 6.007812 182.484375 1.648438 186.179688 0.863281 190.707031 C 0.0742188 195.238281 3.125 198.957031 7.65625 198.957031 Z M 123.71875 237.363281 L 126.597656 220.890625 L 49.09375 220.890625 C 44.5625 220.890625 40.207031 224.609375 39.417969 229.140625 C 38.628906 233.644531 41.683594 237.363281 46.210938 237.363281 Z M 116.921875 276.238281 L 119.804688 259.769531 L 84.816406 259.769531 C 80.289062 259.769531 75.929688 263.460938 75.140625 267.992188 C 74.355469 272.523438 77.40625 276.238281 81.9375 276.238281 Z M 228.132812 292.367188 L 147.007812 292.367188 C 134.648438 292.367188 126.328125 282.269531 128.492188 269.910156 L 142.675781 188.789062 C 144.84375 176.453125 156.710938 166.359375 169.042969 166.359375 L 250.167969 166.359375 C 262.527344 166.359375 270.847656 176.453125 268.707031 188.789062 L 254.5 269.910156 C 252.335938 282.269531 240.46875 292.367188 228.132812 292.367188 Z M 452.894531 253.417969 L 437.53125 341.261719 C 434.378906 359.1875 424.183594 375.535156 410.273438 387.375 C 403.0625 393.480469 394.886719 398.40625 386.171875 401.730469 C 386.46875 400.054688 386.859375 398.457031 387.378906 397.078125 C 389.839844 390.183594 409.4375 367.238281 415.839844 343.75 C 422.242188 320.285156 394.074219 294.53125 379.351562 280.992188 C 379.351562 280.992188 386.835938 271.832031 392.054688 256.519531 C 392.054688 256.519531 409.636719 280.105469 452.894531 253.417969 Z M 164.585938 439.203125 L 220.574219 439.203125 C 217.867188 454.664062 203.144531 467.195312 187.679688 467.195312 C 172.21875 467.195312 161.878906 454.664062 164.585938 439.203125 Z M 471.382812 439.203125 L 527.371094 439.203125 C 524.660156 454.664062 509.9375 467.195312 494.476562 467.195312 C 479.015625 467.195312 468.675781 454.664062 471.382812 439.203125 Z M 471.382812 439.203125 " fill-opacity="1" fill-rule="evenodd"/></g></svg>