<svg xmlns="http://www.w3.org/2000/svg" xmlns:xlink="http://www.w3.org/1999/xlink" width="800" zoomAndPan="magnify" viewBox="0 0 600 599.999999" height="800" preserveAspectRatio="xMidYMid meet" version="1.0"><path fill="#b28947" d="M 91.542969 23.789062 C 91.542969 23.789062 -0.105469 126.175781 40.632812 214.457031 C 78.632812 296.808594 193.472656 487.929688 386.28125 566.140625 C 414.421875 577.578125 445.296875 582.070312 475.191406 576.632812 C 497.578125 572.5625 559.402344 559.085938 579.71875 534.84375 C 581.859375 532.28125 585.859375 529.296875 589.894531 523.121094 C 593.4375 517.683594 599.964844 510.527344 597.507812 498.316406 C 594.210938 481.894531 524.773438 417.824219 497.929688 393.578125 C 490.035156 386.457031 479.894531 382.140625 469.296875 382.140625 C 462.386719 382.140625 456.105469 383.71875 453.542969 388.28125 C 434.808594 421.578125 415.050781 443.613281 398.316406 452.386719 C 376.386719 463.894531 239.894531 369.050781 184.808594 257.824219 C 176.28125 240.632812 179.929688 219.894531 193.789062 206.632812 C 211.085938 190.105469 239.015625 162.140625 239.824219 156.457031 C 241.191406 146.949219 237.542969 141.050781 232.140625 128.84375 C 227.859375 119.226562 165.507812 58.105469 139.15625 32.5625 C 129.613281 23.296875 116.808594 17.824219 103.507812 18.28125 C 99.121094 18.457031 93.296875 21.683594 91.542969 23.789062 Z M 91.542969 23.789062 " fill-opacity="1" fill-rule="nonzero"/></svg>